<svg width="8" height="9" viewBox="0 0 8 9" fill="none" xmlns="http://www.w3.org/2000/svg">
<path fill-rule="evenodd" clip-rule="evenodd" d="M6.17593 0.985076C6.3673 0.698626 6.72661 0.575545 7.05343 0.684492V0.684492C7.53076 0.843617 7.72688 1.41248 7.44903 1.83196L3.54678 7.72326C3.19121 8.26008 2.42837 8.32584 1.98618 7.85778L0.409347 6.18871C0.272642 6.04401 0.186443 5.85894 0.163636 5.66119L0.133315 5.39829C0.0862579 4.99027 0.40563 4.63252 0.816352 4.63317V4.63317C0.964738 4.63341 1.10905 4.68172 1.22767 4.77086L1.98229 5.33797C2.43979 5.68179 3.09197 5.57225 3.41204 5.09784L5.07759 2.62913L6.17593 0.985076Z" fill="#45A2FE"/>
</svg>
