<svg width="9" height="9" viewBox="0 0 9 9" fill="none" xmlns="http://www.w3.org/2000/svg">
<path fill-rule="evenodd" clip-rule="evenodd" d="M7.57099 0.865307C7.84679 0.528938 8.34349 0.480865 8.67869 0.758096V0.758096C9.00127 1.0249 9.05785 1.49785 8.80729 1.83321L4.34691 7.80331C3.98373 8.28942 3.27481 8.34267 2.84309 7.91626L0.455865 5.55843C0.322363 5.42657 0.246405 5.24728 0.244552 5.05965V5.05965C0.240675 4.66703 0.555807 4.34562 0.948419 4.34174L1.02915 4.34094C1.19689 4.33929 1.36082 4.39096 1.4973 4.4885L2.8286 5.44003C3.27436 5.75864 3.8935 5.6592 4.21707 5.21704L5.99628 2.78577L7.57099 0.865307Z" fill="#45A2FE"/>
</svg>
