<svg width="25" height="25" viewBox="0 0 25 25" fill="none" xmlns="http://www.w3.org/2000/svg">
<path d="M9.74394 21.8752C10.4785 22.5235 11.4433 22.9168 12.5 22.9168C13.5567 22.9168 14.5216 22.5235 15.2561 21.8752M18.75 8.3335C18.75 6.67589 18.0915 5.08618 16.9194 3.91408C15.7473 2.74198 14.1576 2.0835 12.5 2.0835C10.8424 2.0835 9.25269 2.74198 8.08059 3.91408C6.90849 5.08618 6.25001 6.67589 6.25001 8.3335C6.25001 11.5524 5.438 13.7564 4.53091 15.2141C3.76577 16.4438 3.38319 17.0586 3.39722 17.2301C3.41276 17.42 3.45299 17.4925 3.60603 17.606C3.74424 17.7085 4.36729 17.7085 5.6134 17.7085H19.3866C20.6327 17.7085 21.2558 17.7085 21.394 17.606C21.547 17.4925 21.5873 17.42 21.6028 17.2301C21.6168 17.0586 21.2343 16.4438 20.4691 15.2141C19.562 13.7564 18.75 11.5524 18.75 8.3335Z" stroke="black" stroke-width="2" stroke-linecap="round" stroke-linejoin="round"/>
</svg>
