<svg width="30" height="30" viewBox="0 0 30 30" fill="none" xmlns="http://www.w3.org/2000/svg">
<rect width="30" height="30" rx="15" fill="#F1F1F1" fill-opacity="0.945098"/>
<path d="M16.8385 21.0182C16.6891 21.0181 16.5415 20.9894 16.4067 20.9341C16.2719 20.8788 16.1532 20.7984 16.0594 20.6986L11.2446 15.5411C11.098 15.3873 11.0182 15.1947 11.0188 14.9962C11.0194 14.7977 11.1005 14.6056 11.248 14.4527L16.265 9.326C16.4353 9.1515 16.6796 9.0422 16.9442 9.02213C17.2087 9.00207 17.4718 9.07288 17.6756 9.219C17.8794 9.36511 18.0072 9.57456 18.0309 9.80127C18.0546 10.028 17.9722 10.2534 17.8019 10.4279L13.3167 15.0077L17.623 19.615C17.745 19.7412 17.8222 19.8947 17.8455 20.0572C17.8689 20.2197 17.8375 20.3845 17.7549 20.5322C17.6724 20.6798 17.5422 20.804 17.3798 20.8901C17.2174 20.9762 17.0296 21.0207 16.8385 21.0182Z" fill="black"/>
</svg>
