<svg width="21" height="21" viewBox="0 0 21 21" fill="none" xmlns="http://www.w3.org/2000/svg">
<path d="M19.875 10.5C19.875 15.6777 15.6777 19.875 10.5 19.875C9.25297 19.875 8.06282 19.6315 6.97447 19.1895C6.76617 19.1049 6.66202 19.0626 6.57783 19.0438C6.49548 19.0253 6.43453 19.0185 6.35014 19.0185C6.26386 19.0185 6.16988 19.0342 5.98193 19.0655L2.27579 19.6832C1.88769 19.7479 1.69364 19.7802 1.55332 19.72C1.4305 19.6674 1.33264 19.5695 1.27996 19.4467C1.21977 19.3064 1.25212 19.1123 1.3168 18.7242L1.93449 15.0181C1.96581 14.8301 1.98148 14.7361 1.98147 14.6499C1.98145 14.5655 1.9747 14.5045 1.95624 14.4222C1.93737 14.338 1.89508 14.2338 1.81048 14.0255C1.36848 12.9372 1.125 11.747 1.125 10.5C1.125 5.32233 5.32233 1.125 10.5 1.125C15.6777 1.125 19.875 5.32233 19.875 10.5Z" stroke="black" stroke-width="2.2" stroke-linecap="round" stroke-linejoin="round"/>
</svg>
