<svg width="18" height="18" viewBox="0 0 18 18" fill="none" xmlns="http://www.w3.org/2000/svg">
<path d="M12.4915 0.62854H5.50817C2.47484 0.62854 0.666504 2.43687 0.666504 5.47021V12.4452C0.666504 15.4869 2.47484 17.2952 5.50817 17.2952H12.4832C15.5165 17.2952 17.3248 15.4869 17.3248 12.4535V5.47021C17.3332 2.43687 15.5248 0.62854 12.4915 0.62854ZM8.12484 13.5535C7.88317 13.7952 7.42484 14.0285 7.0915 14.0785L5.0415 14.3702C4.9665 14.3785 4.8915 14.3869 4.8165 14.3869C4.47484 14.3869 4.15817 14.2702 3.93317 14.0452C3.65817 13.7702 3.5415 13.3702 3.60817 12.9285L3.89984 10.8785C3.94984 10.5369 4.17484 10.0869 4.42484 9.84521L8.1415 6.12854C8.20817 6.30354 8.27484 6.47854 8.3665 6.67854C8.44984 6.85354 8.5415 7.03687 8.6415 7.20354C8.72484 7.34521 8.8165 7.47854 8.8915 7.57854C8.98317 7.72021 9.0915 7.85354 9.15817 7.92854C9.19984 7.98687 9.23317 8.02854 9.24984 8.04521C9.45817 8.29521 9.69984 8.52854 9.90817 8.70354C9.9665 8.76187 9.99984 8.79521 10.0165 8.80354C10.1415 8.90354 10.2665 9.00354 10.3748 9.07854C10.5082 9.17854 10.6415 9.27021 10.7832 9.34521C10.9498 9.44521 11.1332 9.53687 11.3165 9.62854C11.5082 9.71187 11.6832 9.78687 11.8582 9.84521L8.12484 13.5535ZM13.4748 8.20354L12.7082 8.97854C12.6582 9.02854 12.5915 9.05354 12.5248 9.05354C12.4998 9.05354 12.4665 9.05354 12.4498 9.04521C10.7582 8.56187 9.40817 7.21187 8.92484 5.52021C8.89984 5.42854 8.92484 5.32854 8.9915 5.27021L9.7665 4.49521C11.0332 3.22854 12.2415 3.25354 13.4832 4.49521C14.1165 5.12854 14.4248 5.73687 14.4248 6.37021C14.4165 6.97021 14.1082 7.57021 13.4748 8.20354Z" fill="black"/>
</svg>
