<svg width="25" height="26" viewBox="0 0 25 26" fill="none" xmlns="http://www.w3.org/2000/svg">
<path d="M9.375 22.375V14.6667C9.375 14.0833 9.375 13.7916 9.48853 13.5688C9.5884 13.3728 9.74776 13.2134 9.94376 13.1135C10.1666 13 10.4583 13 11.0417 13H13.9583C14.5417 13 14.8334 13 15.0562 13.1135C15.2522 13.2134 15.4116 13.3728 15.5115 13.5688C15.625 13.7916 15.625 14.0833 15.625 14.6667V22.375M11.4768 3.3792L4.41186 8.87412C3.93961 9.24143 3.70348 9.42509 3.53336 9.65509C3.38267 9.85883 3.27042 10.0883 3.20211 10.3324C3.125 10.6079 3.125 10.907 3.125 11.5053V19.0417C3.125 20.2085 3.125 20.7918 3.35207 21.2375C3.55181 21.6295 3.87052 21.9482 4.26252 22.1479C4.70817 22.375 5.29156 22.375 6.45833 22.375H18.5417C19.7084 22.375 20.2918 22.375 20.7375 22.1479C21.1295 21.9482 21.4482 21.6295 21.6479 21.2375C21.875 20.7918 21.875 20.2085 21.875 19.0417V11.5053C21.875 10.907 21.875 10.6079 21.7979 10.3324C21.7296 10.0883 21.6173 9.85883 21.4666 9.65509C21.2965 9.42509 21.0604 9.24143 20.5881 8.87412L13.5232 3.3792C13.1573 3.09456 12.9743 2.95224 12.7722 2.89753C12.594 2.84926 12.406 2.84926 12.2278 2.89753C12.0257 2.95224 11.8427 3.09456 11.4768 3.3792Z" stroke="black" stroke-width="2" stroke-linecap="round" stroke-linejoin="round"/>
</svg>
