<svg width="19" height="19" viewBox="0 0 19 19" fill="none" xmlns="http://www.w3.org/2000/svg">
<path d="M9.50016 4.35466L9.07235 4.7664C9.18429 4.8827 9.33874 4.94841 9.50016 4.94841C9.66158 4.94841 9.81604 4.8827 9.92798 4.7664L9.50016 4.35466ZM7.46245 14.5048C6.26255 13.5589 4.95051 12.6352 3.90964 11.4632C2.88913 10.314 2.17725 8.97314 2.17725 7.23353H0.989746C0.989746 9.34372 1.86889 10.9536 3.02173 12.2517C4.15422 13.5269 5.59786 14.547 6.72729 15.4374L7.46245 14.5048ZM2.17725 7.23353C2.17725 5.53076 3.13941 4.10282 4.45278 3.50247C5.72872 2.91925 7.44314 3.0737 9.07235 4.7664L9.92798 3.94291C7.99481 1.93444 5.7509 1.60342 3.9591 2.42246C2.20472 3.22439 0.989746 5.08647 0.989746 7.23353H2.17725ZM6.72729 15.4374C7.1328 15.7571 7.56813 16.098 8.0093 16.3557C8.45033 16.6134 8.9536 16.8229 9.50016 16.8229V15.6354C9.25506 15.6354 8.96666 15.5399 8.60843 15.3305C8.25036 15.1212 7.87889 14.8331 7.46245 14.5048L6.72729 15.4374ZM12.2731 15.4374C13.4024 14.547 14.8461 13.5269 15.9786 12.2517C17.1314 10.9536 18.0106 9.34372 18.0106 7.23353H16.8231C16.8231 8.97314 16.1112 10.314 15.0907 11.4632C14.0498 12.6352 12.7378 13.5589 11.5379 14.5048L12.2731 15.4374ZM18.0106 7.23353C18.0106 5.08647 16.7956 3.22439 15.0412 2.42246C13.2494 1.60342 11.0055 1.93444 9.07235 3.94291L9.92798 4.7664C11.5571 3.0737 13.2716 2.91925 14.5475 3.50247C15.8609 4.10282 16.8231 5.53076 16.8231 7.23353H18.0106ZM11.5379 14.5048C11.1214 14.8331 10.75 15.1212 10.3919 15.3305C10.0337 15.5399 9.74526 15.6354 9.50016 15.6354V16.8229C10.0467 16.8229 10.55 16.6134 10.991 16.3557C11.4322 16.098 11.8675 15.7571 12.2731 15.4374L11.5379 14.5048Z" fill="black"/>
</svg>
