<svg width="15" height="10" viewBox="0 0 15 10" fill="none" xmlns="http://www.w3.org/2000/svg">
<path fill-rule="evenodd" clip-rule="evenodd" d="M12.3771 0.502976C12.5725 0.185421 12.9457 0.0240397 13.3109 0.0991504V0.0991504C13.9121 0.222769 14.2089 0.904883 13.8897 1.42903L8.90874 9.60836C8.7863 9.80943 8.51755 9.8618 8.32857 9.72141L6.32775 8.23502C6.24451 8.17317 6.22234 8.05796 6.27669 7.96964L7.09876 6.63392C7.14842 6.55322 7.24789 6.51845 7.33701 6.55063L8.68908 7.03883L8.48477 6.96506L10.6958 3.23472L12.3771 0.502976ZM7.96025 0.366756C8.2088 -0.0250409 8.73996 -0.11915 9.108 0.1634V0.1634C9.4257 0.407307 9.51049 0.850428 9.30529 1.1944L4.18319 9.78015C4.05581 9.99366 3.76657 10.0405 3.57834 9.87804L0.271392 7.02415C-0.0637065 6.73496 -0.0925982 6.22569 0.207644 5.90046V5.90046C0.469174 5.61716 0.898035 5.56646 1.21841 5.78097L2.58597 6.69662C3.04061 7.00102 3.65548 6.88353 3.96586 6.43294L5.81413 3.74968L7.96025 0.366756Z" fill="#868686"/>
</svg>
