<svg width="26" height="25" viewBox="0 0 26 25" fill="none" xmlns="http://www.w3.org/2000/svg">
<path d="M21.3333 21.875C21.3333 20.4213 21.3333 19.6944 21.1539 19.103C20.75 17.7713 19.7079 16.7292 18.3762 16.3252C17.7847 16.1458 17.0579 16.1458 15.6042 16.1458H10.3958C8.94213 16.1458 8.21527 16.1458 7.62382 16.3252C6.29215 16.7292 5.25005 17.7713 4.84609 19.103C4.66667 19.6944 4.66667 20.4213 4.66667 21.875M17.6875 7.8125C17.6875 10.4013 15.5888 12.5 13 12.5C10.4112 12.5 8.31251 10.4013 8.31251 7.8125C8.31251 5.22367 10.4112 3.125 13 3.125C15.5888 3.125 17.6875 5.22367 17.6875 7.8125Z" stroke="black" stroke-width="2" stroke-linecap="round" stroke-linejoin="round"/>
</svg>
