<svg width="15" height="10" viewBox="0 0 15 10" fill="none" xmlns="http://www.w3.org/2000/svg">
<path fill-rule="evenodd" clip-rule="evenodd" d="M13.2195 0.536179C13.4149 0.218624 13.7881 0.0572428 14.1534 0.132354V0.132354C14.7545 0.255972 15.0513 0.938086 14.7321 1.46223L9.75115 9.64157C9.6287 9.84263 9.35995 9.895 9.17098 9.75461L7.17016 8.26822C7.08691 8.20638 7.06475 8.09116 7.1191 8.00285L7.94116 6.66712C7.99083 6.58643 8.0903 6.55166 8.17942 6.58383L9.53149 7.07204L9.32717 6.99826L11.5382 3.26792L13.2195 0.536179ZM8.80266 0.399959C9.05121 0.00816226 9.58237 -0.0859473 9.9504 0.196603V0.196603C10.2681 0.440511 10.3529 0.883631 10.1477 1.2276L5.0256 9.81335C4.89822 10.0269 4.60898 10.0737 4.42075 9.91124L1.1138 7.05736C0.778701 6.76817 0.749809 6.25889 1.05005 5.93366V5.93366C1.31158 5.65036 1.74044 5.59967 2.06082 5.81418L3.42837 6.72982C3.88302 7.03423 4.49789 6.91673 4.80827 6.46614L6.65654 3.78288L8.80266 0.399959Z" fill="#1283F3"/>
</svg>
