<svg width="18" height="18" viewBox="0 0 24 22" fill="none" xmlns="http://www.w3.org/2000/svg">
<path d="M22.4686 11.722C22.7632 11.4733 22.9105 11.3489 22.9645 11.2009C23.0118 11.071 23.0118 10.929 22.9645 10.7991C22.9105 10.6511 22.7632 10.5267 22.4686 10.278L12.2471 1.64765C11.74 1.2195 11.4865 1.00543 11.2718 1.00018C11.0853 0.995625 10.9071 1.07636 10.7892 1.21885C10.6535 1.38281 10.6535 1.71175 10.6535 2.36964V7.47521C8.07762 7.91912 5.72008 9.20485 3.9681 11.1353C2.05806 13.24 1.00149 15.9637 1 18.7868V19.5143C2.26623 18.0117 3.84719 16.7965 5.6346 15.9518C7.21046 15.2071 8.91397 14.766 10.6535 14.6498V19.6304C10.6535 20.2882 10.6535 20.6172 10.7892 20.7811C10.9071 20.9236 11.0853 21.0044 11.2718 20.9998C11.4865 20.9946 11.74 20.7805 12.2471 20.3523L22.4686 11.722Z" stroke="black" stroke-width="2.2" stroke-linecap="round" stroke-linejoin="round"/>
</svg>
