<svg width="18" height="18" viewBox="0 0 18 18" fill="none" xmlns="http://www.w3.org/2000/svg">
<path d="M9 16.5C13.1421 16.5 16.5 13.1421 16.5 9C16.5 4.85786 13.1421 1.5 9 1.5C4.85786 1.5 1.5 4.85786 1.5 9C1.5 13.1421 4.85786 16.5 9 16.5Z" stroke="black" stroke-width="1.5"/>
<path d="M6.75 12C7.38779 12.4727 8.16345 12.75 9 12.75C9.83655 12.75 10.6122 12.4727 11.25 12" stroke="black" stroke-width="1.5" stroke-linecap="round"/>
<path d="M12 7.875C12 8.4963 11.6642 9 11.25 9C10.8358 9 10.5 8.4963 10.5 7.875C10.5 7.25368 10.8358 6.75 11.25 6.75C11.6642 6.75 12 7.25368 12 7.875Z" fill="black"/>
<path d="M6.75 9C7.16421 9 7.5 8.49632 7.5 7.875C7.5 7.25368 7.16421 6.75 6.75 6.75C6.33579 6.75 6 7.25368 6 7.875C6 8.49632 6.33579 9 6.75 9Z" fill="black"/>
</svg>
