<svg width="20" height="20" viewBox="0 0 20 20" fill="none" xmlns="http://www.w3.org/2000/svg">
<path d="M10.0001 4.58386L9.54975 5.01728C9.66758 5.13969 9.83016 5.20886 10.0001 5.20886C10.17 5.20886 10.3326 5.13969 10.4504 5.01728L10.0001 4.58386ZM7.85512 15.2683C6.59207 14.2726 5.21097 13.3003 4.11532 12.0665C3.0411 10.8568 2.29175 9.44542 2.29175 7.61425H1.04175C1.04175 9.8355 1.96716 11.5301 3.18068 12.8965C4.37277 14.2388 5.89239 15.3127 7.08127 16.2499L7.85512 15.2683ZM2.29175 7.61425C2.29175 5.82186 3.30456 4.31877 4.68705 3.68683C6.03014 3.0729 7.8348 3.23549 9.54975 5.01728L10.4504 4.15044C8.4155 2.03627 6.05349 1.68783 4.16738 2.54997C2.32067 3.3941 1.04175 5.35419 1.04175 7.61425H2.29175ZM7.08127 16.2499C7.50812 16.5864 7.96637 16.9453 8.43075 17.2166C8.895 17.4878 9.42475 17.7083 10.0001 17.7083V16.4583C9.74208 16.4583 9.4385 16.3577 9.06141 16.1373C8.6845 15.9171 8.29348 15.6138 7.85512 15.2683L7.08127 16.2499ZM12.9189 16.2499C14.1077 15.3127 15.6274 14.2388 16.8195 12.8965C18.033 11.5301 18.9584 9.8355 18.9584 7.61425H17.7084C17.7084 9.44542 16.9591 10.8568 15.8848 12.0665C14.7892 13.3003 13.4081 14.2726 12.1451 15.2683L12.9189 16.2499ZM18.9584 7.61425C18.9584 5.35419 17.6795 3.3941 15.8327 2.54997C13.9467 1.68783 11.5847 2.03627 9.54975 4.15044L10.4504 5.01728C12.1653 3.23549 13.97 3.0729 15.3131 3.68683C16.6956 4.31877 17.7084 5.82186 17.7084 7.61425H18.9584ZM12.1451 15.2683C11.7067 15.6138 11.3157 15.9171 10.9387 16.1373C10.5617 16.3577 10.2581 16.4583 10.0001 16.4583V17.7083C10.5754 17.7083 11.1052 17.4878 11.5694 17.2166C12.0338 16.9453 12.492 16.5864 12.9189 16.2499L12.1451 15.2683Z" fill="black"/>
</svg>
